<svg width="184" height="184" viewBox="0 0 184 184" fill="none" xmlns="http://www.w3.org/2000/svg">
<path d="M92.0002 0.333252C142.692 0.333252 183.667 41.4091 183.667 91.9999C183.667 142.609 142.692 183.667 92.0002 183.667C41.4002 183.667 0.333496 142.609 0.333496 91.9999C0.333496 41.4091 41.4002 0.333252 92.0002 0.333252ZM92.0002 118.867C87.6002 118.867 84.0252 122.442 84.0252 126.842C84.0252 131.242 87.6002 134.909 92.0918 134.909C96.4918 134.909 100.067 131.242 100.067 126.842C100.067 122.442 96.4918 118.867 92.0002 118.867ZM92.0002 49.1916C87.6002 49.1916 83.9335 52.8674 83.9335 57.2582V97.7749C83.9335 102.184 87.6002 105.75 92.0002 105.75C96.4002 105.75 99.9752 102.184 99.9752 97.7749V57.2582C99.9752 52.8674 96.4002 49.1916 92.0002 49.1916Z" fill="url(#paint0_linear_71303_2880)"/>
<defs>
<linearGradient id="paint0_linear_71303_2880" x1="140.5" y1="15.5" x2="36" y2="162" gradientUnits="userSpaceOnUse">
<stop stop-color="#E52B1A" stop-opacity="0.77"/>
<stop offset="1" stop-color="#1A47E5" stop-opacity="0.74"/>
</linearGradient>
</defs>
</svg>
